<svg width="48" height="48" viewBox="0 0 48 48" fill="none" xmlns="http://www.w3.org/2000/svg">
<mask id="mask0_1467_33" style="mask-type:luminance" maskUnits="userSpaceOnUse" x="0" y="0" width="48" height="48">
<path d="M0 0H47.5V47.5H0V0Z" fill="white"/>
</mask>
<g mask="url(#mask0_1467_33)">
<path d="M24.2363 24.7687C24.2363 25.0887 24.0838 25.3762 23.84 25.6212L6.34126 43.1225C6.2252 43.2386 6.08741 43.3308 5.93574 43.3936C5.78407 43.4565 5.62151 43.4889 5.45732 43.489C5.12573 43.4891 4.80768 43.3575 4.57313 43.1231C4.33858 42.8887 4.20674 42.5708 4.20663 42.2392C4.20651 41.9076 4.33812 41.5895 4.57251 41.355L22.0725 23.8537C22.56 23.365 23.3675 23.3812 23.855 23.87C24.0988 24.1125 24.2363 24.4462 24.2363 24.7687Z" fill="#4289C1"/>
<path d="M42.3563 18.8912C42.3563 15.9858 41.2021 13.1993 39.1476 11.1449C37.0931 9.09041 34.3067 7.93623 31.4013 7.93623C29.6598 7.93657 27.9436 8.35267 26.3954 9.14993C24.8472 9.94719 23.5117 11.1026 22.5 12.52C21.4886 11.1025 20.1534 9.94708 18.6054 9.1498C17.0573 8.35252 15.3413 7.93646 13.6 7.93623C12.1613 7.93606 10.7366 8.2193 9.40732 8.76977C8.07806 9.32024 6.87024 10.1271 5.85284 11.1444C4.83544 12.1617 4.02839 13.3694 3.47777 14.6986C2.92715 16.0278 2.64375 17.4525 2.64375 18.8912C2.64375 19.7487 2.7525 20.58 2.93875 21.3787C4.46125 30.8312 14.9688 40.8012 22.5 43.54C30.0313 40.8012 40.54 30.8312 42.06 21.38C42.2475 20.58 42.3563 19.7487 42.3563 18.8912Z" fill="#E75A70"/>
<path d="M38.28 2.86872C38.6625 3.39372 39.02 4.43998 39.02 5.28623C39.02 7.74123 38.1237 11.1037 36.0375 13.2037L31.1975 16.8975C30.8538 17.24 30.2125 17.3437 29.7675 17.16C29.3187 16.975 28.75 18.0725 28.75 17.5875V11.265C28.75 8.93122 33.3575 3.39497 33.3575 3.39497C34.4113 2.42872 35.4612 1.91623 36.4075 1.91748C36.7736 1.91092 37.1357 1.9942 37.4621 2.16004C37.7886 2.32587 38.0694 2.5692 38.28 2.86872Z" fill="#5DADEC"/>
<path d="M45.7863 11.0688C45.7863 12.0325 45.265 13.365 44.2813 14.4375C44.2813 14.4375 38.645 20.0013 36.2688 20.0013H29.8138C29.3188 20.0013 30.455 18.8513 30.2675 18.3938C30.08 17.94 30.185 16.9875 30.535 16.6375L34.44 12.5488C36.5788 10.4238 40.2138 8.655 42.715 8.655C43.5763 8.655 44.2838 8.80125 44.8175 9.1875C45.4413 9.64375 45.7863 10.2763 45.7863 11.0688Z" fill="#5DADEC"/>
<path d="M41.7363 7.26874C41.7363 7.58874 41.5837 7.87749 41.34 8.12249L22.5913 26.8737C22.4752 26.9899 22.3374 27.082 22.1857 27.1449C22.0341 27.2078 21.8715 27.2402 21.7073 27.2402C21.5431 27.2403 21.3805 27.208 21.2288 27.1452C21.0771 27.0825 20.9393 26.9904 20.8231 26.8744C20.707 26.7583 20.6148 26.6205 20.552 26.4688C20.4891 26.3172 20.4567 26.1546 20.4566 25.9904C20.4566 25.8262 20.4888 25.6637 20.5516 25.5119C20.6144 25.3602 20.7064 25.2224 20.8225 25.1062L39.5725 6.35499C40.06 5.86624 40.8675 5.88249 41.355 6.36999C41.5988 6.61374 41.7363 6.94749 41.7363 7.26874ZM3.4375 45.5825C3.2479 45.5819 3.06091 45.5382 2.8906 45.4549C2.7203 45.3715 2.57111 45.2507 2.45427 45.1013C2.33744 44.952 2.25599 44.7781 2.21606 44.5928C2.17613 44.4074 2.17876 44.2154 2.22375 44.0312L4.255 35.855C4.39625 35.29 4.90625 34.9425 5.49125 34.9062C6.0725 34.9175 6.57125 35.3275 6.6925 35.8975C6.73125 36.0775 7.73375 40.4425 11.7563 40.9037C12.0451 40.9372 12.3132 41.0702 12.5145 41.28C12.7158 41.4898 12.8377 41.7632 12.8592 42.0532C12.8806 42.3431 12.8003 42.6315 12.6321 42.8687C12.4639 43.1058 12.2183 43.2769 11.9375 43.3525L3.76 45.54C3.65484 45.5683 3.5464 45.5826 3.4375 45.5825Z" fill="#2A6797"/>
<path d="M22.9662 31.91C22.6666 31.9096 22.3771 31.8016 22.1504 31.6057C21.9238 31.4098 21.775 31.1389 21.7313 30.8425C21.135 26.7863 18.7875 26.3325 16.5175 25.8938L15.9963 25.79C15.8323 25.7601 15.676 25.6977 15.5366 25.6065C15.3971 25.5154 15.2773 25.3972 15.1841 25.2591C15.091 25.1209 15.0264 24.9655 14.9942 24.802C14.962 24.6385 14.9628 24.4703 14.9965 24.3071C15.0303 24.1439 15.0963 23.9892 15.1907 23.8519C15.2852 23.7146 15.4061 23.5976 15.5464 23.5077C15.6867 23.4178 15.8436 23.3569 16.0078 23.3286C16.172 23.3002 16.3402 23.3049 16.5025 23.3425L16.9925 23.4388C19.3713 23.8988 23.35 24.6688 24.205 30.4775C24.2312 30.6553 24.2188 30.8367 24.1686 31.0093C24.1184 31.1819 24.0315 31.3417 23.9139 31.4776C23.7963 31.6136 23.6508 31.7226 23.4873 31.7972C23.3237 31.8718 23.146 31.9103 22.9662 31.91Z" fill="#DA2F47"/>
</g>
</svg>
