<svg width="48" height="48" viewBox="0 0 48 48" fill="none" xmlns="http://www.w3.org/2000/svg">
<mask id="mask0_1467_22" style="mask-type:luminance" maskUnits="userSpaceOnUse" x="0" y="0" width="48" height="48">
<path d="M0 0H47.5V47.5H0V0Z" fill="white"/>
</mask>
<g mask="url(#mask0_1467_22)">
<path d="M46.2213 22.09C45.9088 27.8075 35.98 32.4 23.75 32.4C19.645 32.4 15.8113 31.8725 12.5 30.97V35.4538C15.8125 36.7338 19.6475 37.4788 23.75 37.4788C36.1775 37.4788 46.25 30.7625 46.25 22.4788C46.25 22.3475 46.2263 22.22 46.2213 22.09ZM35 9.5C31.6925 8.22 27.8538 7.47875 23.75 7.47875C12.4775 7.47875 3.16875 13.0113 1.5325 20.2213C3.16875 15.1338 12.4775 11.2288 23.75 11.2288C27.8538 11.2288 31.6925 11.7513 35 12.655V9.5Z" fill="#F2ABBA"/>
<path d="M32.2125 25.8937C32.2127 24.7773 31.9929 23.6718 31.5657 22.6403C31.1386 21.6088 30.5124 20.6715 29.7229 19.8821C28.9335 19.0926 27.9962 18.4665 26.9647 18.0393C25.9332 17.6121 24.8277 17.3923 23.7113 17.3925C22.3599 17.3924 21.028 17.715 19.8266 18.3336C18.6251 18.9522 17.5887 19.8488 16.8038 20.9488C16.0186 19.8489 14.9822 18.9524 13.7808 18.3339C12.5794 17.7153 11.2476 17.3926 9.89625 17.3925C8.77981 17.3923 7.67427 17.6121 6.64277 18.0393C5.61128 18.4665 4.67404 19.0926 3.8846 19.8821C3.09515 20.6715 2.46896 21.6088 2.04179 22.6403C1.61462 23.6718 1.39484 24.7773 1.395 25.8937C1.395 26.5575 1.47875 27.205 1.62375 27.825C2.805 35.1587 10.9588 42.8987 16.8038 45.0225C22.6475 42.8987 30.8038 35.1587 31.98 27.8275C32.133 27.1943 32.211 26.5452 32.2125 25.8937ZM46.1063 8.36625C46.1064 7.59288 45.9542 6.82706 45.6583 6.11253C45.3625 5.398 44.9287 4.74876 44.3818 4.20191C43.835 3.65505 43.1858 3.2213 42.4712 2.92542C41.7567 2.62954 40.9909 2.47733 40.2175 2.4775C39.2812 2.47756 38.3586 2.70128 37.5262 3.13005C36.6939 3.55881 35.9761 4.18021 35.4325 4.9425C34.889 4.18045 34.1713 3.55922 33.3393 3.13048C32.5072 2.70173 31.5848 2.47786 30.6488 2.4775C29.8754 2.47733 29.1096 2.62954 28.395 2.92542C27.6805 3.2213 27.0313 3.65505 26.4844 4.20191C25.9376 4.74876 25.5038 5.398 25.2079 6.11253C24.912 6.82706 24.7598 7.59288 24.76 8.36625C24.76 8.8275 24.8188 9.275 24.9188 9.70375C25.7363 14.785 31.385 20.145 35.4325 21.6162C39.48 20.145 45.13 14.785 45.9475 9.705C46.0475 9.275 46.1063 8.8275 46.1063 8.36625Z" fill="#E75A70"/>
</g>
</svg>
